PathFileType	4	(X/Y/Z)	C:/Users/beibeiliu/ov580/test_trc/capture2\sequence.24_training_dense_left.trc
DataRate	CameraRate	NumFrames	NumMarkers	Units	OrigDataRate	OrigDataStartFrame	OrigNumFrames
120	120	10	19	mm	120	301	400
Frame#	Time	ThumbCMC			ThumbMCP			ThumbIP			ThumbTip			IndexMCP			IndexPIP			IndexTip			MiddleMCP			MiddlePIP			MiddleTip			RingMCP			RingPIP			RingTip			PinkyMCP			PinkyPIP			PinkyTip			BackHand1			BackHand2			BackHand3	
		X0	Y0	Z0	X1	Y1	Z1	X2	Y2	Z2	X3	Y3	Z3	X4	Y4	Z4	X5	Y5	Z5	X6	Y6	Z6	X7	Y7	Z7	X8	Y8	Z8	X9	Y9	Z9	X10	Y10	Z10	X11	Y11	Z11	X12	Y12	Z12	X13	Y13	Z13	X14	Y14	Z14	X15	Y15	Z15	X16	Y16	Z16	X17	Y17	Z17	X18	Y18	Z18	
300	2.5	-71.3408	57.7888	20.1907	-66.2501	47.202	-17.569	-68.8999	51.0316	-43.8534	-82.0671	61.5349	-65.7856	-56.5215	111.933	-34.3943	-45.4179	116.328	-54.5318	-47.2255	125.863	-77.6174	-72.9448	120.25	-42.4378	-63.4778	127.431	-64.3838	-54.5435	135.626	-87.7877	-92.161	109.559	-52.1116	-86.0133	89.2336	-71.6168	-87.6289	59.3188	-48.9475	-110.984	89.3617	-52.5322	-105.263	62.2285	-54.3225	-101.47	54.9655	-24.2326	-109.153	104.107	2.80542	-116.14	97.183	27.5069	-87.0064	97.7911	22.5293	
301	2.50833	-69.8197	61.4783	16.5914	-65.1424	45.7351	-17.5624	-67.3183	44.0201	-44.1551	-80.1858	54.7138	-63.3059	-56.3638	107.088	-36.247	-47.1612	111.125	-59.5914	-42.6458	117.776	-83.5986	-73.0746	115.251	-43.9296	-63.9757	122.422	-73.9698	-59.4841	128.484	-97.0561	-90.7568	104.387	-51.5659	-89.9187	81.6791	-74.7449	-85.0865	55.7507	-49.0053	-112.531	86.8108	-52.7106	-106.211	57.7889	-52.0012	-101.259	52.8035	-21.6793	-111.138	105.207	-0.257875	-116.804	99.5738	26.4639	-81.304	100.402	21.3219	
302	2.51667	-65.7543	60.9035	17.0297	-64.0312	42.0661	-16.8496	-67.2501	40.0736	-40.6321	-82.651	49.6383	-67.0379	-51.7978	103.268	-40.4451	-47.412	105.263	-64.6297	-44.6976	109.591	-92.769	-72.4998	111.348	-52.3274	-63.996	114.194	-79.0036	-57.4256	116.946	-102.025	-91.3513	99.6752	-58.9489	-92.6001	74.7208	-75.8696	-88.0987	49.5351	-48.394	-111.226	81.5259	-52.1023	-104.438	53.3804	-50.6995	-101.914	49.5363	-19.0257	-108.406	105.626	-2.18691	-116.805	100.091	24.0058	-79.4907	99.2167	20.0742	
303	2.525	-66.2705	61.7453	17.5719	-62.8117	39.0819	-13.5114	-68.0788	35.3348	-38.3693	-80.533	38.4378	-63.4572	-56.3869	97.7176	-46.2974	-51.1972	96.2514	-73.7002	-48.473	97.5916	-95.6206	-71.0189	105.143	-58.9829	-67.2232	103.558	-84.8709	-57.9174	102.95	-110.67	-95.9998	91.648	-58.6897	-89.2028	66.5629	-75.189	-88.8945	43.1647	-49.0633	-110.48	76.1959	-50.6654	-107.224	44.5225	-46.4945	-102.352	43.8223	-18.2817	-106.164	104.371	-8.75751	-114.29	103.424	19.5576	-79.159	100.518	15.4586	
304	2.53333	-64.9483	62.824	16.4005	-62.3568	35.0712	-9.39151	-67.9973	31.1466	-36.5085	-82.5995	34.2712	-58.9931	-54.8534	89.4569	-50.2327	-50.7839	85.6381	-76.5723	-51.1821	86.1949	-99.4365	-74.5092	95.9258	-60.2421	-69.8683	93.493	-83.5949	-63.8201	91.0389	-114.019	-92.8868	82.4206	-63.3119	-88.427	53.2694	-72.8289	-89.7503	35.4131	-48.514	-111.62	67.2559	-51.7773	-105.218	40.3821	-44.3982	-99.9032	39.1191	-13.3976	-103.705	103.203	-7.09688	-107.702	101.111	18.7694	-73.6283	100.624	11.5111	
305	2.54167	-62.3283	63.0086	15.0597	-65.2278	36.3385	-6.12208	-66.4106	24.0132	-34.589	-81.5562	24.8239	-57.626	-49.9246	83.4927	-54.6451	-50.0304	79.4655	-76.2669	-49.017	77.2804	-103.527	-73.9248	90.3156	-60.0322	-67.0594	85.378	-85.34	-60.3864	80.3789	-115.052	-94.73	76.4241	-62.523	-95.0042	47.4382	-72.9901	-88.171	29.7408	-43.9807	-114.663	64.8307	-49.8192	-106.83	34.639	-42.1016	-98.0376	37.6735	-9.47578	-103.688	99.9187	-10.9794	-109.396	104.47	13.8372	-74.8313	100.672	9.87442	
306	2.55	-63.0332	61.9201	18.5788	-66.3248	33.9599	-5.84681	-68.1896	20.5226	-33.7433	-80.0943	17.9882	-53.6579	-53.9438	79.046	-54.732	-51.1215	71.8673	-79.9735	-50.7265	68.8976	-102.155	-72.4952	84.8111	-62.5625	-68.1029	77.8682	-87.3927	-61.5274	71.26	-116.807	-95.3772	69.5657	-64.1348	-91.5208	37.47	-67.1315	-91.6552	24.624	-39.6874	-110.61	60.3816	-48.4026	-105.247	31.4608	-37.7428	-99.7665	34.7492	-7.67436	-101.334	98.3697	-14.1522	-107.238	103.282	13.7219	-76.0028	100.19	5.99119	
307	2.55833	-58.2524	60.2406	19.727	-62.1015	27.6838	-0.426003	-68.3718	16.5995	-26.7452	-82.7742	14.9299	-50.3148	-51.4205	75.5356	-53.9361	-51.2789	66.595	-77.7174	-52.7151	61.9182	-99.6619	-73.162	78.7043	-63.61	-68.5205	70.7613	-91.3534	-63.973	63.2031	-114.873	-91.0976	64.4045	-62.8203	-90.0756	33.6723	-65.1064	-92.1676	21.1297	-36.1304	-112.176	53.237	-48.015	-105.996	27.4393	-36.4701	-97.4105	33.1287	-3.38713	-102.48	95.3698	-13.7742	-103.962	101.982	11.9251	-70.6392	98.9752	5.97063	
308	2.56667	-59.6466	59.1555	16.9348	-62.0549	26.674	2.58007	-66.5794	9.53408	-22.4655	-82.61	8.13362	-43.5286	-49.6954	70.1382	-53.3181	-45.853	61.0216	-77.8635	-50.2234	54.7956	-99.1255	-71.3456	75.0671	-62.2321	-66.6066	64.5026	-86.9769	-65.9055	57.2711	-112.033	-93.2448	58.9435	-62.319	-92.5709	28.867	-63.9201	-86.9179	18.955	-34.438	-113.842	51.389	-45.1201	-106.134	23.0807	-30.3935	-97.3178	27.2178	-2.63898	-98.3777	93.2868	-14.1368	-105.97	99.7784	12.123	-73.2012	95.6599	2.97484	
309	2.575	-57.7788	57.684	16.5782	-63.9551	27.282	1.34227	-69.2658	8.87104	-22.8838	-87.3757	7.83542	-45.0726	-49.9399	67.4757	-52.3762	-50.115	56.4393	-76.9866	-49.0686	50.2197	-99.1497	-67.7613	70.7825	-62.4453	-64.0878	60.7162	-84.8706	-65.7253	50.8719	-112.285	-93.9816	57.5023	-59.3744	-88.4428	26.0059	-61.6148	-87.0439	17.1459	-27.3822	-107.948	46.0131	-44.5995	-103.36	20.7795	-30.4373	-92.1552	27.3465	-0.408303	-101.875	92.0649	-16.7568	-104.732	98.8335	14.2821	-71.6573	94.9261	-0.301001	
